<?xml version="1.0" encoding="utf-8"?>
<!-- Generator: Adobe Illustrator 17.0.0, SVG Export Plug-In . SVG Version: 6.00 Build 0)  -->
<!DOCTYPE svg PUBLIC "-//W3C//DTD SVG 1.1//EN" "http://www.w3.org/Graphics/SVG/1.1/DTD/svg11.dtd">
<svg version="1.1" id="Calque_1" xmlns="http://www.w3.org/2000/svg" xmlns:xlink="http://www.w3.org/1999/xlink" x="0px" y="0px"
	 width="246.134px" height="228.86px" viewBox="0 0 246.134 228.86" enable-background="new 0 0 246.134 228.86"
	 xml:space="preserve">
	 
<g id="fond" fill="#f1dcff">
<g>
	<polygon stroke="#676666" stroke-miterlimit="10" points="229.312,84.822 122.266,17.447 15.22,84.822 
		15.22,212.697 229.312,212.697 	"/>
	<path fill="#515151" stroke="#676666" stroke-miterlimit="10" d="M230.141,213.526H14.39V84.364l107.875-67.897l107.875,67.897
		V213.526z M16.05,211.867h212.433V85.28L122.266,18.427L16.05,85.28V211.867z"/>
</g>
<g>
	<polygon points="15.928,212.697 122.266,148.759 228.603,212.697 	"/>
	<path fill="#515151" d="M231.593,213.526H12.939l109.327-65.735l0.427,0.257L231.593,213.526z M18.918,211.867h206.697
		l-103.349-62.14L18.918,211.867z"/>
</g>
</g>

<g>
	
		<rect x="11.576" y="162.847" transform="matrix(0.8874 0.461 -0.461 0.8874 80.4025 -1.8234)" fill="#515151" width="64.715" height="1.659"/>
</g>
<g>
	
		<rect x="200.269" y="131.319" transform="matrix(0.461 0.8874 -0.8874 0.461 253.6488 -90.2312)" fill="#515151" width="1.659" height="64.715"/>
</g>
<g>
	<path fill="#010202" d="M78.986,117.699c2.767,0.288,4.095-0.952,3.984-3.719c-0.066-1.328-0.697-2.014-1.893-2.059
		c-0.531,0.089-0.996,0.388-1.395,0.896c-0.089-0.155-0.244-0.476-0.465-0.963c0.354-0.841,1.018-1.229,1.992-1.162
		c1.881,0.089,2.822,1.052,2.822,2.889c0,0.111,0,0.222,0,0.332c-0.133,3.52-1.683,5.279-4.648,5.279c-0.199,0-0.41,0-0.631,0
		c-5.113-0.398-7.736-3.729-7.869-9.994c0.221-6.53,2.501-9.795,6.84-9.795h0.033c4.383,0.022,6.386,2.756,6.01,8.201
		c-1.926,0.066-5.744,0.199-11.455,0.398C72.047,114.002,74.271,117.234,78.986,117.699z M72.545,106.775
		c1.66-0.066,5.002-0.199,10.027-0.398c-0.398-3.276-1.938-4.936-4.615-4.98c-0.045,0-0.1,0-0.166,0
		C74.647,101.396,72.898,103.189,72.545,106.775z"/>
	<path fill="#010202" d="M85.494,100.666c0.332-0.376,0.785-0.598,1.361-0.664c0.177,0.332,0.332,0.908,0.465,1.727
		c0.376-0.531,0.984-1.084,1.826-1.66c0.818-0.575,2.225-0.863,4.217-0.863c1.106,0,1.959,0.255,2.557,0.764
		c0.598,0.487,1.018,1.151,1.262,1.992c0.243,0.863,0.343,1.871,0.299,3.021c-0.066,1.129-0.178,2.302-0.332,3.52
		c-0.178,1.461-0.365,2.889-0.564,4.283s-0.222,2.579-0.066,3.553c0.088,0.531,0.243,0.985,0.465,1.361
		c0.221,0.354,0.531,0.609,0.93,0.764c0.31,0.133,0.608,0.022,0.896-0.332c0.287-0.332,0.442-0.774,0.465-1.328
		c0.486,0.155,0.752,0.476,0.797,0.963c-0.022,0.398-0.255,0.775-0.697,1.129c-0.465,0.332-1.019,0.442-1.66,0.332
		c-0.753-0.11-1.317-0.409-1.693-0.896c-0.377-0.487-0.62-1.096-0.73-1.826c-0.199-1.129-0.188-2.446,0.033-3.951
		c0.199-1.505,0.387-2.988,0.564-4.449c0.11-0.797,0.188-1.549,0.232-2.258c0.044-0.73,0.021-1.395-0.066-1.992
		c-0.089-0.797-0.344-1.438-0.764-1.926c-0.398-0.487-1.029-0.73-1.893-0.73c-1.771,0-3.21,0.365-4.316,1.096
		c-1.107,0.73-1.649,2.136-1.627,4.217c0.044,4.87,0.077,9.087,0.1,12.65c-0.288,0.066-0.576,0.11-0.863,0.133
		c-0.354,0-0.687-0.056-0.996-0.166C86.092,108.59,86.025,102.437,85.494,100.666z"/>
	<path fill="#010202" d="M101.896,99.371c0.354,0,0.708,0.056,1.063,0.166c1.328,5.689,3.397,10.88,6.209,15.572
		c2.324-4.25,4.394-9.385,6.209-15.406c0.664-0.221,1.35-0.276,2.059-0.166c-2.834,6.796-5.623,13.326-8.367,19.59
		c-2.9-6.153-5.634-12.684-8.201-19.59C101.221,99.426,101.564,99.371,101.896,99.371z"/>
	<path fill="#010202" d="M118.564,109.166c0.376-6.397,2.49-9.596,6.342-9.596c0.287,0,0.586,0.022,0.896,0.066
		c3.852,0.465,5.777,3.907,5.777,10.326c0,0.133,0,0.266,0,0.398c0.088,5.8-2.236,8.699-6.973,8.699c-0.178,0-0.344,0-0.498,0
		c-3.741-0.155-5.611-2.855-5.611-8.102C118.498,110.383,118.52,109.786,118.564,109.166z M124.408,117.865c0.11,0,0.232,0,0.365,0
		c3.63,0,5.445-2.523,5.445-7.57c0-0.022,0-0.044,0-0.066c-0.066-5.977-1.605-9.142-4.615-9.496
		c-0.199-0.022-0.398-0.033-0.598-0.033c-3.011,0-4.604,2.867-4.781,8.6c-0.045,0.62-0.066,1.207-0.066,1.76
		C120.158,115.463,121.574,117.732,124.408,117.865z"/>
	<path fill="#010202" d="M135.266,99.968c-1.882,9.939-0.62,15.218,3.785,15.838c3.984,0.554,5.578-4.726,4.781-15.838
		c0.575-0.221,1.184-0.133,1.826,0.266c0.154,2.966,0.232,6.054,0.232,9.264c0,3.476-0.089,7.072-0.266,10.791
		c-0.421,5.688-2.513,8.533-6.275,8.533c-0.465,0-0.952-0.044-1.461-0.133c-3.542-0.775-5.08-3.132-4.615-7.072
		c0.553-2.324,1.781-3.586,3.686-3.785c2.213,0,3.387,0.853,3.52,2.557c0.066,1.616-0.587,2.534-1.959,2.756
		c-0.73-0.177-1.107-0.509-1.129-0.996c0.066-0.465,0.121-0.697,0.166-0.697c1.482,0.553,2.103,0.221,1.859-0.996
		c-0.199-0.952-0.941-1.438-2.225-1.461c-1.683,0.199-2.579,1.195-2.689,2.988c0.044,3.231,1.428,5.002,4.15,5.313
		c3.143,0,4.991-2.335,5.545-7.006c0.177-1.195,0.232-3.53,0.166-7.006c-0.643,2.656-2.38,3.929-5.213,3.818
		c-4.383-0.642-6.574-3.829-6.574-9.563c0-2.169,0.31-4.682,0.93-7.537c0.266-0.133,0.564-0.199,0.896-0.199
		C134.689,99.802,134.978,99.858,135.266,99.968z"/>
	<path fill="#010202" d="M155.453,117.699c2.767,0.288,4.095-0.952,3.984-3.719c-0.066-1.328-0.697-2.014-1.893-2.059
		c-0.531,0.089-0.996,0.388-1.395,0.896c-0.089-0.155-0.244-0.476-0.465-0.963c0.354-0.841,1.018-1.229,1.992-1.162
		c1.881,0.089,2.822,1.052,2.822,2.889c0,0.111,0,0.222,0,0.332c-0.133,3.52-1.683,5.279-4.648,5.279c-0.199,0-0.41,0-0.631,0
		c-5.113-0.398-7.736-3.729-7.869-9.994c0.221-6.53,2.501-9.795,6.84-9.795h0.033c4.383,0.022,6.386,2.756,6.01,8.201
		c-1.926,0.066-5.744,0.199-11.455,0.398C148.514,114.002,150.738,117.234,155.453,117.699z M149.012,106.775
		c1.66-0.066,5.002-0.199,10.027-0.398c-0.398-3.276-1.938-4.936-4.615-4.98c-0.045,0-0.1,0-0.166,0
		C151.114,101.396,149.365,103.189,149.012,106.775z"/>
	<path fill="#010202" d="M163.455,100.068c0.177,0.398,0.343,1.107,0.498,2.125c1.04-2.014,2.611-3.021,4.715-3.021
		c0.133,0,0.276,0,0.432,0c3.121,0.266,4.715,1.837,4.781,4.715c-0.066,2.59-1.328,3.874-3.785,3.852
		c-0.554-0.022-0.996-0.221-1.328-0.598c-0.332-0.376-0.543-0.697-0.631-0.963c-0.222-0.465-0.199-0.94,0.066-1.428
		c0.243-0.487,0.553-0.841,0.93-1.063c0.332,0.066,0.531,0.277,0.598,0.631c-0.244,0.31-0.388,0.609-0.432,0.896
		c-0.066,0.266-0.066,0.509,0,0.73c0.11,0.398,0.376,0.687,0.797,0.863c0.42,0.155,0.797,0.144,1.129-0.033
		c0.354-0.199,0.764-0.564,1.229-1.096c0.442-0.509,0.575-1.173,0.398-1.992c-0.155-0.819-0.554-1.561-1.195-2.225
		c-0.643-0.686-1.483-0.985-2.523-0.896c-1.041,0.066-1.871,0.288-2.49,0.664c-0.643,0.376-1.129,0.919-1.461,1.627
		c-0.62,1.328-0.886,3.31-0.797,5.943c0.066,2.634,0.077,6.099,0.033,10.393c-0.354,0.088-0.809,0.133-1.361,0.133
		c-0.155,0-0.332,0-0.531,0c0.199-4.073,0.266-7.57,0.199-10.492c-0.045-2.922-0.344-5.744-0.896-8.467
		c0.287-0.11,0.553-0.21,0.797-0.299C162.891,99.979,163.167,99.979,163.455,100.068z"/>
</g>

</svg>
